<svg width="671" height="671" viewBox="0 0 671 671" fill="none" xmlns="http://www.w3.org/2000/svg">
<g clip-path="url(#clip0_135_10)">
<path d="M113.548 61.1666L154.206 20.7265C154.206 20.7265 158.325 15.9238 168.061 15.9238H581.844C584.821 15.9206 587.769 16.5041 590.521 17.641C593.272 18.778 595.772 20.446 597.878 22.5498C599.984 24.6536 601.655 27.1519 602.795 29.9018C603.935 32.6518 604.522 35.5994 604.522 38.5763V553.376C604.522 553.376 604.522 562.522 598.514 568.635L557.645 609.312L113.548 61.1666Z" fill="url(#paint0_linear_135_10)" stroke="#3B3E41" stroke-width="3.58" stroke-miterlimit="10"/>
<path d="M78.3765 96.1083L119.034 55.6681C119.034 55.6681 123.153 50.8655 132.883 50.8655H546.927C552.935 50.8655 558.697 53.2521 562.945 57.5002C567.193 61.7484 569.579 67.5101 569.579 73.5179V588.318C569.579 588.318 569.579 597.463 563.578 603.577L522.703 644.284L78.3765 96.1083Z" fill="url(#paint1_linear_135_10)" stroke="#3B3E41" stroke-width="3.58" stroke-miterlimit="10"/>
<path d="M503.02 90.7837H93.6043C78.6231 90.7837 66.4785 102.928 66.4785 117.909V627.95C66.4785 642.931 78.6231 655.076 93.6043 655.076H503.02C518.001 655.076 530.146 642.931 530.146 627.95V117.909C530.146 102.928 518.001 90.7837 503.02 90.7837Z" fill="#EEEEEE" stroke="#3B3E41" stroke-width="3.58" stroke-miterlimit="10"/>
<path d="M66.4785 151.404H530.146" stroke="#3B3E41" stroke-width="3.58" stroke-miterlimit="10"/>
<path d="M427.607 131.765C433.293 131.765 437.902 127.155 437.902 121.47C437.902 115.784 433.293 111.175 427.607 111.175C421.922 111.175 417.312 115.784 417.312 121.47C417.312 127.155 421.922 131.765 427.607 131.765Z" stroke="#3B3E41" stroke-width="3.58" stroke-linejoin="round"/>
<path d="M458.498 131.765C464.184 131.765 468.793 127.155 468.793 121.47C468.793 115.784 464.184 111.175 458.498 111.175C452.812 111.175 448.203 115.784 448.203 121.47C448.203 127.155 452.812 131.765 458.498 131.765Z" stroke="#3B3E41" stroke-width="3.58" stroke-linejoin="round"/>
<path d="M489.389 131.765C495.074 131.765 499.684 127.155 499.684 121.47C499.684 115.784 495.074 111.175 489.389 111.175C483.703 111.175 479.094 115.784 479.094 121.47C479.094 127.155 483.703 131.765 489.389 131.765Z" stroke="#3B3E41" stroke-width="3.58" stroke-linejoin="round"/>
</g>
<defs>
<linearGradient id="paint0_linear_135_10" x1="681.587" y1="605.503" x2="295.458" y2="-63.2852" gradientUnits="userSpaceOnUse">
<stop stop-color="#547DBE"/>
<stop offset="0.27" stop-color="#547DBE"/>
<stop offset="0.68" stop-color="#30A043"/>
<stop offset="1" stop-color="#30A043"/>
</linearGradient>
<linearGradient id="paint1_linear_135_10" x1="646.558" y1="640.501" x2="260.373" y2="-28.3995" gradientUnits="userSpaceOnUse">
<stop stop-color="#547DBE"/>
<stop offset="0.27" stop-color="#547DBE"/>
<stop offset="0.68" stop-color="#30A043"/>
<stop offset="1" stop-color="#30A043"/>
</linearGradient>
<clipPath id="clip0_135_10">
<rect width="671" height="671" fill="white"/>
</clipPath>
</defs>
</svg>
