<svg width="671" height="671" viewBox="0 0 671 671" fill="none" xmlns="http://www.w3.org/2000/svg">
<g clip-path="url(#clip0_138_159)">
<path d="M175.479 659.817C169.814 659.818 164.204 658.704 158.97 656.537C153.735 654.37 148.979 651.194 144.973 647.189C140.967 643.183 137.789 638.428 135.62 633.195C133.452 627.961 132.336 622.351 132.336 616.686V215.832C132.313 188.641 137.765 161.724 148.365 136.685C158.58 112.441 173.342 90.3765 191.856 71.6852C230.432 32.6678 281.447 11.1833 335.5 11.1833H335.866C389.685 11.2805 441.267 32.728 479.288 70.8181C517.31 108.908 538.664 160.528 538.664 214.347V616.699C538.662 622.363 537.545 627.971 535.376 633.203C533.207 638.435 530.029 643.189 526.022 647.193C522.016 651.197 517.261 654.372 512.027 656.538C506.794 658.704 501.185 659.818 495.521 659.817H175.479Z" fill="white" stroke="#3B3E41" stroke-width="3.11" stroke-miterlimit="10"/>
<path d="M161.102 510.128V215.832C161.102 119.736 239.721 39.7628 335.817 39.9368C431.913 40.1108 509.898 118.127 509.898 214.347V510.128C509.898 521.567 505.354 532.537 497.265 540.625C489.177 548.714 478.206 553.258 466.767 553.258H204.232C192.794 553.258 181.823 548.714 173.735 540.625C165.646 532.537 161.102 521.567 161.102 510.128Z" fill="#EEEEEE" stroke="#3B3E41" stroke-width="3.11" stroke-miterlimit="10"/>
</g>
<defs>
<clipPath id="clip0_138_159">
<rect width="671" height="671" fill="white"/>
</clipPath>
</defs>
</svg>
