<svg width="670" height="671" viewBox="0 0 670 671" fill="none" xmlns="http://www.w3.org/2000/svg">
<g clip-path="url(#clip0_4_69)">
<path d="M598.986 335.376C618.042 309.068 628.149 277.321 627.815 244.822C627.114 163.258 560.976 95.8723 479.547 93.8468C447.022 92.9706 415.08 102.613 388.457 121.345C377.73 128.867 364.951 132.902 351.856 132.902C338.76 132.902 325.981 128.867 315.254 121.345C288.631 102.613 256.69 92.9706 224.165 93.8468C142.747 95.8723 76.6097 163.258 75.8963 244.822C75.5605 277.322 85.6673 309.068 104.725 335.376C112.818 346.516 117.178 359.939 117.178 373.716C117.178 387.493 112.818 400.916 104.725 412.056C85.6697 438.371 75.5653 470.124 75.9025 502.629C76.5973 584.193 142.729 651.578 224.171 653.604C256.699 654.484 288.645 644.844 315.272 626.111C325.999 618.587 338.778 614.55 351.874 614.55C364.971 614.55 377.75 618.587 388.476 626.111C415.093 644.84 447.028 654.48 479.547 653.604C560.97 651.578 627.102 584.186 627.815 502.629C628.146 470.135 618.041 438.394 598.993 412.087C590.891 400.945 586.526 387.516 586.525 373.733C586.524 359.949 590.887 346.52 598.986 335.376Z" fill="#202124" stroke="#202124" stroke-width="6.76" stroke-miterlimit="10"/>
<path d="M565.275 258.944C584.336 232.631 594.441 200.877 594.098 168.371C593.397 86.8075 527.259 19.4279 445.829 17.3962C413.307 16.5281 381.37 26.1772 354.753 44.9135C344.026 52.4381 331.247 56.4744 318.151 56.4744C305.055 56.4744 292.276 52.4381 281.549 44.9135C254.925 26.1761 222.982 16.5272 190.454 17.3962C109.03 19.4465 42.8926 86.8261 42.1854 168.371C41.8495 200.87 51.954 232.616 71.0078 258.925C79.1012 270.066 83.4609 283.488 83.4609 297.265C83.4609 311.042 79.1012 324.465 71.0078 335.606C51.9551 361.917 41.8508 393.665 42.1854 426.166C42.8802 507.729 109.012 575.122 190.454 577.141C222.981 578.018 254.924 568.376 281.549 549.642C292.277 542.12 305.055 538.085 318.151 538.085C331.247 538.085 344.025 542.12 354.753 549.642C381.374 568.392 413.32 578.05 445.854 577.184C527.272 575.153 593.403 507.761 594.123 426.209C594.457 393.698 584.346 361.941 565.282 335.624C557.187 324.484 552.826 311.062 552.825 297.285C552.824 283.508 557.183 270.085 565.275 258.944Z" fill="url(#paint0_linear_4_69)" stroke="#202124" stroke-width="6.76" stroke-miterlimit="10"/>
</g>
<defs>
<linearGradient id="paint0_linear_4_69" x1="24.6833" y1="362.578" x2="611.676" y2="232.424" gradientUnits="userSpaceOnUse">
<stop stop-color="#F8C10A"/>
<stop offset="0.26" stop-color="#F8BE0B"/>
<stop offset="0.51" stop-color="#F46831"/>
<stop offset="0.75" stop-color="#EA4335"/>
<stop offset="1" stop-color="#EA4335"/>
</linearGradient>
<clipPath id="clip0_4_69">
<rect width="670" height="671" fill="white"/>
</clipPath>
</defs>
</svg>
