<svg width="671" height="671" viewBox="0 0 671 671" fill="none" xmlns="http://www.w3.org/2000/svg">
<g clip-path="url(#clip0_4_98)">
<path d="M263.063 585.634H276.626C292.436 585.634 305.315 580.212 315.264 569.368C325.213 558.525 330.184 544.063 330.175 525.983V416.846C330.175 394.252 333.903 376.628 341.359 363.974C348.814 351.32 360.677 342.506 376.947 337.532V333.468C360.681 328.498 348.818 319.572 341.359 306.69C333.899 293.809 330.171 276.297 330.175 254.154V145.017C330.175 126.949 325.205 112.488 315.264 101.632C305.324 90.7755 292.442 85.3536 276.62 85.3661H263.063V25.032H282.721C318.876 25.032 347.348 35.652 368.137 56.8921C388.925 78.1321 399.319 106.604 399.319 142.308V254.141C399.319 270.415 403.724 282.957 412.534 291.767C421.344 300.577 432.528 304.982 446.084 304.982V365.993C432.528 365.993 421.344 370.398 412.534 379.208C403.724 388.018 399.319 400.56 399.319 416.834V528.723C399.319 564.423 388.925 592.895 368.137 614.139C347.348 635.383 318.878 646.003 282.727 645.999H263.063V585.634Z" fill="#202124" stroke="#202124" stroke-width="3.05" stroke-miterlimit="10"/>
<path d="M224.909 585.634H238.466C254.284 585.634 267.164 580.212 277.104 569.368C287.045 558.525 292.015 544.063 292.015 525.983V416.846C292.015 394.252 295.743 376.628 303.199 363.974C310.654 351.32 322.517 342.506 338.787 337.532V333.468C322.517 328.498 310.654 319.572 303.199 306.69C295.743 293.809 292.015 276.297 292.015 254.154V145.017C292.015 126.949 287.045 112.488 277.104 101.632C267.164 90.7755 254.284 85.3536 238.466 85.3661H224.909V25.032H244.567C280.718 25.032 309.188 35.652 329.977 56.8921C350.765 78.1321 361.159 106.604 361.159 142.308V254.141C361.159 270.415 365.567 282.957 374.381 291.767C383.195 300.577 394.378 304.982 407.931 304.982V365.993C394.374 365.993 383.191 370.398 374.381 379.208C365.571 388.018 361.164 400.564 361.159 416.846V528.723C361.159 564.423 350.767 592.895 329.983 614.139C309.198 635.383 280.726 646.003 244.567 645.999H224.909V585.634Z" fill="url(#paint0_linear_4_98)" stroke="#202124" stroke-width="3.05" stroke-miterlimit="10"/>
</g>
<defs>
<linearGradient id="paint0_linear_4_98" x1="316.42" y1="645.962" x2="316.42" y2="25.032" gradientUnits="userSpaceOnUse">
<stop stop-color="#F8C10A"/>
<stop offset="0.26" stop-color="#F8BE0B"/>
<stop offset="0.51" stop-color="#F46831"/>
<stop offset="0.75" stop-color="#EA4335"/>
<stop offset="1" stop-color="#EA4335"/>
</linearGradient>
<clipPath id="clip0_4_98">
<rect width="671" height="671" fill="white"/>
</clipPath>
</defs>
</svg>
