<svg width="671" height="671" viewBox="0 0 671 671" fill="none" xmlns="http://www.w3.org/2000/svg">
<path d="M113.349 654.02L96.8043 637.978C66.3939 608.479 51.1079 576.313 50.9464 541.479C50.7849 506.645 65.2818 474.209 94.4371 444.171L185.687 350.07C198.966 336.401 205.494 322.254 205.27 307.629C205.047 293.004 199.231 280.163 187.824 269.108L237.609 217.783C249.016 228.842 262.021 234.262 276.626 234.042C291.231 233.823 305.173 226.869 318.452 213.179L409.726 119.096C438.853 89.063 470.831 73.5927 505.661 72.6856C540.491 71.7785 573.109 86.0684 603.515 115.555L620.054 131.622L570.822 182.375L559.415 171.316C546.115 158.41 530.854 152.458 513.632 153.46C496.41 154.463 480.426 162.573 465.68 177.79L376.624 269.643C358.552 288.282 341.125 299.972 324.342 304.715C307.558 309.458 290.295 307.287 272.55 298.204L269.226 301.621C278.857 319.067 281.646 336.159 277.595 352.896C273.544 369.634 262.299 387.505 243.859 406.508L154.796 498.311C140.042 513.528 132.425 529.753 131.945 546.983C131.464 564.214 137.874 579.286 151.174 592.201L162.581 603.279L113.349 654.02Z" fill="#202124" stroke="#202124" stroke-width="3.69" stroke-miterlimit="10"/>
<path d="M113.349 598.358L96.8043 582.316C66.3939 552.801 51.1079 520.632 50.9464 485.81C50.7849 450.989 65.2818 418.555 94.4371 388.509L185.687 294.408C198.966 280.739 205.494 266.592 205.27 251.967C205.047 237.342 199.231 224.501 187.824 213.447L237.609 162.159C249.016 173.222 262.021 178.644 276.626 178.424C291.231 178.205 305.173 171.248 318.452 157.555L409.726 63.4346C438.853 33.4011 470.831 17.9288 505.661 17.0175C540.491 16.1063 573.109 30.3961 603.515 59.887L620.054 75.9599L570.822 126.745L559.415 115.648C546.115 102.75 530.854 96.8044 513.632 97.8109C496.41 98.8174 480.426 106.925 465.68 122.135L376.624 213.956C358.552 232.595 341.125 244.286 324.342 249.028C307.558 253.771 290.295 251.598 272.55 242.511L269.226 245.934C278.857 263.397 281.646 280.493 277.595 297.222C273.544 313.952 262.299 331.82 243.859 350.828L154.796 442.649C140.042 457.858 132.425 474.082 131.945 491.321C131.464 508.56 137.874 523.633 151.174 536.539L162.581 547.598L113.349 598.358Z" fill="url(#paint0_linear_4_60)" stroke="#202124" stroke-width="3.69" stroke-miterlimit="10"/>
<defs>
<linearGradient id="paint0_linear_4_60" x1="32.8671" y1="504.71" x2="542.305" y2="-19.2828" gradientUnits="userSpaceOnUse">
<stop stop-color="#4285F4"/>
<stop offset="0.19" stop-color="#577FED"/>
<stop offset="0.25" stop-color="#5F7DEA"/>
<stop offset="0.52" stop-color="#9F6CD4"/>
<stop offset="0.77" stop-color="#EA4335"/>
<stop offset="1" stop-color="#EA4335"/>
</linearGradient>
</defs>
</svg>
