<svg width="671" height="671" viewBox="0 0 671 671" fill="none" xmlns="http://www.w3.org/2000/svg">
<path d="M100.507 206.5L94.648 219.976C87.8138 235.716 87.6398 250.867 94.1262 265.43C100.612 279.993 112.844 291.177 130.82 298.98L239.342 346.149C261.808 355.907 277.723 367.232 287.088 380.121C296.453 393.011 300.088 408.616 297.992 426.936L302.037 428.694C314.011 414.661 328.013 406.721 344.043 404.874C360.072 403.026 379.098 406.889 401.121 416.461L509.643 463.624C527.611 471.435 544.139 472.742 559.229 467.544C574.318 462.346 585.273 451.894 592.095 436.187L597.954 422.705L657.946 448.799L649.447 468.345C633.828 504.294 610.964 528.015 580.856 539.509C550.748 551.003 517.946 549.033 482.449 533.6L371.237 485.263C355.058 478.222 340.683 477.186 328.113 482.157C315.542 487.127 306.326 496.345 300.465 509.811L239.82 483.412C245.677 469.93 246.128 456.903 241.175 444.332C236.221 431.761 225.659 421.962 209.488 414.933L98.2454 366.565C62.7528 351.14 38.9364 328.5 26.7963 298.645C14.6561 268.789 16.402 235.89 32.0338 199.945L40.5145 180.424L100.507 206.5Z" fill="#202124" stroke="#202124" stroke-width="4.79" stroke-miterlimit="10"/>
<path d="M94.723 150.229L88.8455 163.711C82.0112 179.451 81.8373 194.602 88.3236 209.165C94.8099 223.729 107.041 234.912 125.017 242.715L233.539 289.878C256.005 299.645 271.919 310.969 281.28 323.851C290.64 336.732 294.277 352.337 292.19 370.665L296.234 372.423C308.209 358.395 322.211 350.456 338.24 348.609C354.269 346.762 373.294 350.622 395.312 360.19L503.871 407.39C521.843 415.198 538.372 416.504 553.457 411.31C568.542 406.116 579.496 395.654 586.317 379.923L592.176 366.44L652.169 392.535L643.663 412.062C628.048 448.002 605.186 471.723 575.078 483.225C544.97 494.728 512.168 492.758 476.671 477.317L365.459 428.98C349.28 421.939 334.906 420.903 322.335 425.874C309.764 430.844 300.546 440.068 294.681 453.546L234.018 427.178C239.874 413.696 240.326 400.67 235.372 388.099C230.418 375.528 219.856 365.726 203.686 358.693L92.4739 310.356C56.9854 294.927 33.1691 272.287 21.0248 242.436C8.88052 212.585 10.6181 179.675 26.2375 143.706L34.7306 124.16L94.723 150.229Z" fill="url(#paint0_linear_4_57)" stroke="#202124" stroke-width="4.79" stroke-miterlimit="10"/>
<defs>
<linearGradient id="paint0_linear_4_57" x1="-4.79602" y1="215.185" x2="612.644" y2="483.527" gradientUnits="userSpaceOnUse">
<stop stop-color="#34A853"/>
<stop offset="0.65" stop-color="#BCBF3D"/>
<stop offset="1" stop-color="#FFCB32"/>
</linearGradient>
</defs>
</svg>
