<svg width="671" height="670" viewBox="0 0 671 670" fill="none" xmlns="http://www.w3.org/2000/svg">
<g clip-path="url(#clip0_4_152)">
<path d="M613.729 238.446C592.112 215.71 563.721 200.551 532.78 195.224C519.683 192.941 507.644 186.582 498.382 177.057C489.121 167.532 483.112 155.328 481.213 142.189C476.758 111.116 462.382 82.308 440.22 60.0457C433.115 52.8455 425.265 46.4177 416.803 40.8701C361.594 4.46054 286.045 8.97063 235.726 55.3992C212.583 76.6965 196.902 104.852 190.993 135.719C188.638 148.154 182.497 159.562 173.41 168.385C164.322 177.208 152.73 183.017 140.214 185.019C109.13 190.021 80.4741 204.854 58.4641 227.335C3.33643 283.509 2.82697 374.648 57.2649 431.617C78.9367 454.284 107.302 469.436 138.214 474.856C151.319 477.123 163.369 483.477 172.633 493.007C181.898 502.536 187.901 514.751 189.781 527.898C194.261 558.906 208.589 587.659 230.656 609.93C286.088 665.899 377.357 668.027 435.243 614.688C458.388 593.344 474.067 565.151 479.976 534.251C482.378 521.836 488.533 510.455 497.612 501.641C506.692 492.827 518.259 487.003 530.755 484.956C551.643 481.636 571.564 473.844 589.152 462.113C606.74 450.382 621.578 434.99 632.647 416.994C666.707 361.391 660.488 287.306 613.729 238.446Z" fill="url(#paint0_linear_4_152)" stroke="#211E1F" stroke-width="9" stroke-miterlimit="10"/>
</g>
<defs>
<linearGradient id="paint0_linear_4_152" x1="42.6148" y1="473.014" x2="618.796" y2="200.734" gradientUnits="userSpaceOnUse">
<stop stop-color="#547DBE"/>
<stop offset="0.27" stop-color="#547DBE"/>
<stop offset="0.68" stop-color="#30A043"/>
<stop offset="1" stop-color="#30A043"/>
</linearGradient>
<clipPath id="clip0_4_152">
<rect width="671" height="670" fill="white"/>
</clipPath>
</defs>
</svg>
