<svg width="671" height="670" viewBox="0 0 671 670" fill="none" xmlns="http://www.w3.org/2000/svg">
<path d="M446.992 238.843C467.302 239.549 486.946 246.251 503.442 258.102C519.939 269.953 532.546 286.421 539.671 305.425C546.797 324.429 548.12 345.115 543.474 364.87C538.828 384.625 528.422 402.561 513.57 416.411L297.676 617.591C277.747 636.161 251.247 646.066 224.006 645.126C196.764 644.187 171.011 632.48 152.413 612.582C133.816 592.683 123.896 566.223 124.837 539.021C125.778 511.82 137.502 486.106 157.43 467.536L373.325 266.356C383.183 257.15 394.766 249.98 407.408 245.259C420.051 240.537 433.503 238.357 446.992 238.843Z" fill="url(#paint0_linear_4_122)" stroke="#282626" stroke-width="10.69" stroke-miterlimit="10"/>
<path d="M139.17 123.894C139.867 103.604 146.575 83.9766 158.447 67.4945C170.318 51.0124 186.818 38.4165 205.861 31.3004C224.903 24.1843 245.631 22.8678 265.423 27.5175C285.215 32.1672 303.18 42.574 317.047 57.4215L518.527 272.963C537.128 292.862 547.051 319.323 546.113 346.527C545.174 373.731 533.451 399.448 513.523 418.021C493.595 436.594 467.093 446.502 439.849 445.565C412.605 444.628 386.849 432.923 368.248 413.024L166.768 197.458C157.543 187.614 150.357 176.049 145.62 163.425C140.884 150.8 138.692 137.367 139.17 123.894Z" fill="url(#paint1_linear_4_122)" stroke="#282626" stroke-width="10.69" stroke-miterlimit="10"/>
<defs>
<linearGradient id="paint0_linear_4_122" x1="682.043" y1="72.1726" x2="198.792" y2="592.274" gradientUnits="userSpaceOnUse">
<stop stop-color="#FFCB32"/>
<stop offset="0.3" stop-color="#FFCB32"/>
<stop offset="0.35" stop-color="#FAC330"/>
<stop offset="0.38" stop-color="#F6BB2E"/>
<stop offset="0.47" stop-color="#F4A72F"/>
<stop offset="0.66" stop-color="#EF7233"/>
<stop offset="0.68" stop-color="#EE6934"/>
<stop offset="0.86" stop-color="#E74435"/>
</linearGradient>
<linearGradient id="paint1_linear_4_122" x1="7.90027" y1="-56.853" x2="721.004" y2="572.116" gradientUnits="userSpaceOnUse">
<stop stop-color="#FFCB32"/>
<stop offset="0.3" stop-color="#FFCB32"/>
<stop offset="0.35" stop-color="#FAC330"/>
<stop offset="0.38" stop-color="#F6BB2E"/>
<stop offset="0.47" stop-color="#F4A72F"/>
<stop offset="0.66" stop-color="#EF7233"/>
<stop offset="0.68" stop-color="#EE6934"/>
<stop offset="0.86" stop-color="#E74435"/>
</linearGradient>
</defs>
</svg>
