<svg width="671" height="671" viewBox="0 0 671 671" fill="none" xmlns="http://www.w3.org/2000/svg">
<g clip-path="url(#clip0_4_241)">
<path d="M653.187 499.423H2.90148C-0.590205 499.423 -1.10588 494.397 2.31125 493.682L40.4278 485.742H615.661L653.778 493.682C657.195 494.397 656.71 499.423 653.187 499.423Z" fill="#3B3E41"/>
<path d="M27.1755 454.236H627.46V473.366C627.46 477.091 625.98 480.664 623.345 483.299C620.711 485.933 617.138 487.413 613.412 487.413H41.1982C37.4769 487.407 33.9102 485.924 31.2812 483.29C28.6521 480.656 27.1755 477.087 27.1755 473.366V454.236Z" fill="#EFEDEB" stroke="#3B3E41" stroke-width="2.7" stroke-linejoin="round"/>
<path d="M118.164 171.577H536.477C541.524 171.577 546.365 173.582 549.933 177.151C553.502 180.72 555.507 185.56 555.507 190.607V454.236H99.134V190.607C99.134 185.56 101.139 180.72 104.708 177.151C108.277 173.582 113.117 171.577 118.164 171.577Z" fill="#EFEDEB" stroke="#3B3E41" stroke-width="2.7" stroke-linejoin="round"/>
<path d="M537.987 190.632H118.214V431.434H537.987V190.632Z" fill="white" stroke="#3B3E41" stroke-width="2.7" stroke-miterlimit="10"/>
</g>
<defs>
<clipPath id="clip0_4_241">
<rect width="671" height="671" fill="white"/>
</clipPath>
</defs>
</svg>
