<svg width="671" height="671" viewBox="0 0 671 671" fill="none" xmlns="http://www.w3.org/2000/svg">
<g clip-path="url(#clip0_4_262)">
<path d="M175.473 518.969C235.325 518.969 283.846 470.449 283.846 410.596C283.846 350.743 235.325 302.223 175.473 302.223C115.62 302.223 67.1001 350.743 67.1001 410.596C67.1001 470.449 115.62 518.969 175.473 518.969Z" fill="#F4F4F5"/>
<mask id="mask0_4_262" style="mask-type:luminance" maskUnits="userSpaceOnUse" x="67" y="302" width="217" height="217">
<path d="M175.473 518.969C235.325 518.969 283.846 470.449 283.846 410.596C283.846 350.743 235.325 302.223 175.473 302.223C115.62 302.223 67.1001 350.743 67.1001 410.596C67.1001 470.449 115.62 518.969 175.473 518.969Z" fill="white"/>
</mask>
<g mask="url(#mask0_4_262)">
<path d="M-2.42901 987.42L-2.7583 264.293L821.534 262.417L821.863 987.047L-2.42901 987.42Z" fill="#F2EFEC" stroke="#202124" stroke-width="4.2" stroke-miterlimit="10"/>
<path d="M821.64 503.865L-2.23633 504.238" stroke="#202124" stroke-width="4.45" stroke-linejoin="round"/>
<path d="M821.559 321.751L-2.31738 322.123" stroke="#202124" stroke-width="4.45" stroke-linejoin="round"/>
<path d="M821.59 382.451L-2.29248 382.824" stroke="#202124" stroke-width="4.45" stroke-linejoin="round"/>
<path d="M821.615 443.158L-2.26758 443.531" stroke="#202124" stroke-width="4.45" stroke-linejoin="round"/>
<path d="M116.468 261.646L116.798 987.65" stroke="#202124" stroke-width="4.45" stroke-linejoin="round"/>
<path d="M175.312 261.622L175.641 987.619" stroke="#202124" stroke-width="4.45" stroke-linejoin="round"/>
<path d="M234.154 261.591L234.484 987.594" stroke="#202124" stroke-width="4.45" stroke-linejoin="round"/>
</g>
<path d="M175.473 518.969C235.325 518.969 283.846 470.449 283.846 410.596C283.846 350.743 235.325 302.223 175.473 302.223C115.62 302.223 67.1001 350.743 67.1001 410.596C67.1001 470.449 115.62 518.969 175.473 518.969Z" stroke="#202124" stroke-width="4.45" stroke-linejoin="round"/>
<path d="M541.671 650.789H603.9V581.204V546.349V518.969H67.1001V546.349V581.204V650.789H129.329V581.204H541.671V650.789Z" fill="#F2EFEC" stroke="#202124" stroke-width="4.2" stroke-miterlimit="10"/>
<path d="M450.384 459.107H283.852V518.975H450.384V459.107Z" fill="url(#paint0_linear_4_262)" stroke="#202124" stroke-width="4.45" stroke-miterlimit="10"/>
<path d="M450.396 399.226H283.864V459.113H450.396V399.226Z" fill="url(#paint1_linear_4_262)" stroke="#202124" stroke-width="4.45" stroke-miterlimit="10"/>
<path d="M601.458 468.153C600.688 461.297 599.016 454.573 596.488 448.153C587.898 426.421 570.764 409.828 545.088 398.375L464.674 362.545C452.977 357.355 445.374 350.173 441.866 340.998C439.181 334.098 438.793 326.516 440.76 319.377C441.354 317.075 442.144 314.828 443.121 312.661L439.505 311.033L399.282 293.103C394.933 302.845 388.182 309.472 379.028 312.984C369.874 316.497 359.443 315.648 347.733 310.437L267.332 274.613C241.684 263.173 217.897 261.526 195.969 269.674C179.136 275.887 165.348 287.412 154.604 304.249C151.421 309.206 148.622 314.399 146.228 319.781C146.042 320.148 145.856 320.483 145.707 320.85L139.4 334.984L182.754 354.319L187.104 344.54C192.161 333.178 200.182 325.663 211.166 321.993C219.355 319.268 228.099 319.158 237.397 321.664C227.561 314.788 216.64 309.611 205.09 306.349C207.054 305.339 209.089 304.475 211.179 303.764C222.167 300.111 234.158 301.169 247.152 306.939L325.603 341.918C341.508 349.005 355.284 351.933 366.932 350.703C378.579 349.473 388.799 343.803 397.592 333.692L400.506 334.984C398.879 348.268 401.411 359.623 408.105 369.05C414.798 378.477 426.274 386.805 442.531 394.032L520.982 428.974C533.967 434.773 542.773 442.988 547.399 453.621C550.837 461.357 551.604 470.017 549.58 478.237C551.271 485.171 551.003 492.439 548.804 499.23C548.226 501.138 547.524 503.006 546.704 504.822L542.355 514.564L552.239 518.956L585.746 533.868L592.021 519.77C592.128 519.494 592.25 519.225 592.388 518.963C600.245 500.995 603.268 484.058 601.458 468.153Z" fill="#202124"/>
<path d="M596.476 429.937C587.885 408.204 570.752 391.611 545.076 380.159L464.674 344.322C452.977 339.116 445.374 331.932 441.866 322.77C440.434 319.015 439.636 315.049 439.505 311.033C439.458 305.299 440.693 299.627 443.121 294.432L399.282 274.874C394.933 284.616 388.182 291.243 379.028 294.755C369.874 298.268 359.443 297.419 347.733 292.208L267.332 256.384C241.684 244.944 217.897 243.287 195.969 251.414C174.042 259.54 157.288 276.599 145.707 302.59L143.793 306.92L139.4 316.737L146.235 319.763L182.761 336.034L187.11 326.292C191.167 317.141 197.187 310.499 205.084 306.33C207.047 305.321 209.082 304.457 211.173 303.746C222.161 300.092 234.152 301.151 247.146 306.92L325.597 341.899C341.502 348.986 355.278 351.915 366.925 350.685C378.573 349.454 388.793 343.784 397.586 333.673L400.5 334.966C398.877 348.262 401.411 359.623 408.105 369.05C414.798 378.477 426.274 386.805 442.531 394.032L520.982 428.974C533.967 434.773 542.773 442.988 547.399 453.621C550.837 461.357 551.604 470.017 549.58 478.237C548.879 481.11 547.916 483.914 546.704 486.612L542.355 496.354L548.81 499.23L585.74 515.676L592.015 501.542C597.14 489.992 600.315 478.889 601.458 468.184C603 455.219 601.287 442.074 596.476 429.937Z" fill="url(#paint2_linear_4_262)" stroke="#202124" stroke-width="4.45" stroke-miterlimit="10"/>
<path d="M597.064 329.29L516.582 189.89C506.451 172.342 484.013 166.33 466.465 176.461L466.46 176.464C448.913 186.595 442.9 209.033 453.031 226.58L533.514 365.98C543.645 383.528 566.083 389.54 583.63 379.409L583.636 379.406C601.183 369.275 607.195 346.837 597.064 329.29Z" fill="#4285F4" stroke="#202124" stroke-width="4.45" stroke-miterlimit="10"/>
<path d="M464.966 101.222C457.084 92.9151 446.731 87.3757 435.448 85.4282C430.668 84.598 426.274 82.2769 422.893 78.7973C419.513 75.3177 417.32 70.8579 416.629 66.0562C415.013 54.7006 409.772 44.1708 401.687 36.0351C381.501 15.5883 348.218 14.8179 327.131 34.3328C318.692 42.112 312.975 52.3964 310.822 63.6704C309.964 68.2143 307.725 72.3828 304.41 75.6073C301.096 78.8318 296.867 80.9552 292.301 81.688C280.959 83.5105 270.504 88.932 262.479 97.1521C242.368 117.655 242.181 150.95 262.038 171.764C269.939 180.043 280.283 185.578 291.556 187.557C296.338 188.382 300.735 190.701 304.116 194.182C307.498 197.662 309.689 202.125 310.375 206.929C312.008 218.256 317.235 228.76 325.286 236.894C345.509 257.335 378.792 258.111 399.904 238.627C408.344 230.834 414.061 220.538 416.213 209.253C417.083 204.714 419.325 200.552 422.638 197.329C425.95 194.107 430.172 191.98 434.733 191.235C446.077 189.443 456.538 184.031 464.556 175.808C484.611 155.281 484.816 121.998 464.966 101.222Z" fill="#EA4335" stroke="#202124" stroke-width="4.45" stroke-miterlimit="10"/>
<path d="M233.825 148.838C241.862 151.446 248.944 156.38 254.177 163.014C259.41 169.648 262.558 177.685 263.223 186.109C263.888 194.532 262.04 202.963 257.913 210.337C253.786 217.71 247.566 223.694 240.038 227.531L130.733 283.311C120.657 288.316 109.013 289.145 98.329 285.617C87.6454 282.089 78.7845 274.489 73.6699 264.468C68.5554 254.446 67.6 242.812 71.0112 232.091C74.4223 221.369 81.9248 212.426 91.8897 207.202L201.238 151.404C206.233 148.85 211.683 147.309 217.275 146.868C222.868 146.428 228.492 147.097 233.825 148.838Z" fill="url(#paint3_linear_4_262)" stroke="#202124" stroke-width="4.45" stroke-miterlimit="10"/>
<path d="M123.998 67.6157C126.603 59.5768 131.533 52.4909 138.165 47.2541C144.797 42.0174 152.833 38.8652 161.257 38.1962C169.68 37.5271 178.113 39.3713 185.489 43.4954C192.864 47.6196 198.851 53.8384 202.692 61.3654L258.497 170.714C261.12 175.718 262.725 181.193 263.218 186.821C263.711 192.45 263.083 198.12 261.37 203.505C259.657 208.889 256.893 213.88 253.238 218.189C249.583 222.497 245.11 226.039 240.077 228.607C235.044 231.176 229.552 232.72 223.919 233.152C218.285 233.584 212.622 232.894 207.257 231.122C201.891 229.35 196.931 226.532 192.662 222.831C188.393 219.129 184.901 214.617 182.388 209.557L126.583 100.209C124.026 95.2144 122.481 89.7637 122.038 84.1702C121.594 78.5767 122.26 72.9507 123.998 67.6157Z" fill="url(#paint4_linear_4_262)" stroke="#202124" stroke-width="4.45" stroke-miterlimit="10"/>
</g>
<defs>
<linearGradient id="paint0_linear_4_262" x1="283.852" y1="489.041" x2="450.384" y2="489.041" gradientUnits="userSpaceOnUse">
<stop stop-color="#34A751"/>
<stop offset="0.22" stop-color="#34A751"/>
<stop offset="0.24" stop-color="#3BA850"/>
<stop offset="0.34" stop-color="#6FB148"/>
<stop offset="0.45" stop-color="#9BB941"/>
<stop offset="0.56" stop-color="#BFC03C"/>
<stop offset="0.67" stop-color="#DBC537"/>
<stop offset="0.78" stop-color="#EFC834"/>
<stop offset="0.89" stop-color="#FBCA33"/>
<stop offset="1" stop-color="#FFCB32"/>
</linearGradient>
<linearGradient id="paint1_linear_4_262" x1="283.864" y1="429.173" x2="450.39" y2="429.173" gradientUnits="userSpaceOnUse">
<stop stop-color="#34A751"/>
<stop offset="0.22" stop-color="#34A751"/>
<stop offset="0.24" stop-color="#3BA850"/>
<stop offset="0.34" stop-color="#6FB148"/>
<stop offset="0.45" stop-color="#9BB941"/>
<stop offset="0.56" stop-color="#BFC03C"/>
<stop offset="0.67" stop-color="#DBC537"/>
<stop offset="0.78" stop-color="#EFC834"/>
<stop offset="0.89" stop-color="#FBCA33"/>
<stop offset="1" stop-color="#FFCB32"/>
</linearGradient>
<linearGradient id="paint2_linear_4_262" x1="139.4" y1="381.004" x2="601.98" y2="381.004" gradientUnits="userSpaceOnUse">
<stop offset="0.01" stop-color="#4285F4"/>
<stop offset="0.25" stop-color="#4285F4"/>
<stop offset="0.52" stop-color="#9F6CD4"/>
<stop offset="0.82" stop-color="#E94434"/>
<stop offset="1" stop-color="#E94434"/>
</linearGradient>
<linearGradient id="paint3_linear_4_262" x1="355.152" y1="113.261" x2="104.254" y2="266.01" gradientUnits="userSpaceOnUse">
<stop stop-color="#FFCB32"/>
<stop offset="0.3" stop-color="#FFCB32"/>
<stop offset="0.36" stop-color="#FBC331"/>
<stop offset="0.38" stop-color="#F8BD30"/>
<stop offset="0.47" stop-color="#F6A931"/>
<stop offset="0.65" stop-color="#F07434"/>
<stop offset="0.68" stop-color="#EF6A34"/>
<stop offset="0.86" stop-color="#E74435"/>
</linearGradient>
<linearGradient id="paint4_linear_4_262" x1="101.368" y1="-13.7041" x2="315.042" y2="316.556" gradientUnits="userSpaceOnUse">
<stop stop-color="#FFCB32"/>
<stop offset="0.3" stop-color="#FFCB32"/>
<stop offset="0.36" stop-color="#FBC331"/>
<stop offset="0.38" stop-color="#F8BD30"/>
<stop offset="0.47" stop-color="#F6A931"/>
<stop offset="0.65" stop-color="#F07434"/>
<stop offset="0.68" stop-color="#EF6A34"/>
<stop offset="0.86" stop-color="#E74435"/>
</linearGradient>
<clipPath id="clip0_4_262">
<rect width="671" height="671" fill="white"/>
</clipPath>
</defs>
</svg>
