<svg width="671" height="671" viewBox="0 0 671 671" fill="none" xmlns="http://www.w3.org/2000/svg">
<path d="M427.241 100.874L160.642 163.19C150.826 165.484 141.988 170.828 135.397 178.456C128.807 186.084 124.801 195.604 123.955 205.649L100.836 478.448C99.988 488.494 102.341 498.551 107.559 507.178C112.776 515.806 120.591 522.56 129.882 526.474L382.197 632.753C391.485 636.666 401.774 637.538 411.588 635.243C421.402 632.949 430.237 627.605 436.827 619.979L615.885 412.87C622.482 405.246 626.493 395.727 627.344 385.681C628.194 375.635 625.84 365.578 620.619 356.953L478.964 122.669C473.752 114.038 465.937 107.283 456.642 103.375C447.348 99.4678 437.054 98.6093 427.241 100.923V100.874Z" fill="#202124" stroke="#202124" stroke-width="5.01" stroke-miterlimit="10"/>
<path d="M404.178 28.878L137.58 91.1878C127.764 93.4839 118.928 98.8289 112.337 106.456C105.747 114.084 101.74 123.602 100.892 133.647L77.774 406.446C76.9266 416.494 79.2808 426.552 84.4994 435.18C89.718 443.808 97.5332 450.564 106.826 454.478L359.109 560.757C368.403 564.681 378.701 565.558 388.524 563.263C398.347 560.968 407.191 555.619 413.783 547.984L592.841 340.874C599.439 333.251 603.451 323.732 604.302 313.686C605.152 303.64 602.797 293.582 597.575 284.958L455.92 50.6669C450.705 42.0377 442.888 35.2842 433.594 31.377C424.299 27.4697 414.005 26.6101 404.191 28.9215L404.178 28.878Z" fill="url(#paint0_linear_4_51)" stroke="#202124" stroke-width="5.01" stroke-miterlimit="10"/>
<defs>
<linearGradient id="paint0_linear_4_51" x1="68.5056" y1="389.531" x2="579.948" y2="225.719" gradientUnits="userSpaceOnUse">
<stop offset="0.06" stop-color="#FFCB32"/>
<stop offset="1" stop-color="#34A853"/>
</linearGradient>
</defs>
</svg>
